<?xml version="1.0" encoding="utf-8"?>
<!-- Generator: Adobe Illustrator 16.0.0, SVG Export Plug-In . SVG Version: 6.00 Build 0)  -->
<!DOCTYPE svg PUBLIC "-//W3C//DTD SVG 1.1//EN" "http://www.w3.org/Graphics/SVG/1.1/DTD/svg11.dtd">
<svg version="1.1" id="Calque_1" xmlns="http://www.w3.org/2000/svg" xmlns:xlink="http://www.w3.org/1999/xlink" x="0px" y="0px"
	 width="432px" height="432px" viewBox="0 0 432 432" enable-background="new 0 0 432 432" xml:space="preserve">
<g>
	<g>
		<g>
			<path fill="#1D1D1B" d="M172.03,90.521c-0.703-12.514,12.196-21.811,17.648-22.118c4.088-0.229,3.266,7.274-1.426,12.258
				c-4.821,4.87,4.255,2.746,5.926-0.704c1.809-3.207,7.384-14.581-4.758-13.9c-9.785,0.55-25.224,11.109-24.453,24.861
				c0.564,10.033,15.34,9.826,15.584,14.161c0.445,7.93-17.799,12.806-18.493,0.418c-0.236-4.213-6.5-5.104-6.193,0.349
				c1.069,19.077,32.862,9.837,32.209-1.809C187.76,98.461,172.334,95.972,172.03,90.521z"/>
			<path fill="#1D1D1B" d="M267.256,82.696c-3.351-2.11-6.7-0.497-9.43,2.232c0,0-1.737,1.861-3.971,4.467l1.736-3.847
				c1.24-2.853-5.211-5.336-6.203-2.978c-1.873,4.644-3.834,9.113-5.832,13.4c-2.379,1.22-5.066,1.857-7.322,1.986
				c1.986-7.445,1.737-14.642-3.226-16.504c-1.241-0.496-2.357-0.496-3.847,0.869c-2.605-1.365-4.219-3.351-6.452-1.116
				c-5.2,5.2-12.123,16.378-12.491,24.588c-2.806,3.338-6.688,7.176-10.342,7.176c-6.079,0,5.832-20.97,11.168-32.758
				c8.066,2.11,8.563-1.24,7.445-3.722c-0.123,2.109-2.854,1.489-5.583,0.372c0.372-0.867,2.357-4.964,2.605-5.459
				c3.227-5.46-3.475-6.823-3.598-6.576c-1.613,2.357-4.344,7.32-5.957,10.174c-3.474-1.736-9.802-0.495-7.816,4.095
				c0.991-2.48,3.35-1.736,6.08-0.62c-7.569,14.766-18.116,37.597-7.197,37.597c4.69,0,9.738-3.898,13.312-7.714
				c0.236,1.518,0.779,2.874,1.704,3.99c2.356,2.73,6.7,4.097,10.049,4.097c4.963,0,10.548-7.941,13.401-16.38
				c1.927,0,4.287-0.282,6.609-1.006c-4.428,9.239-8.959,17.542-13.004,24.683c-1.366,2.356,5.955,2.48,7.692-1.117
				c3.597-7.321,3.294-6.802,7.763-15.238c0.992,2.729,3.349,5.583,7.196,5.583C264.774,112.971,275.072,87.659,267.256,82.696z
				 M222.957,112.722c-9.677,0,0.869-19.355,2.731-23.077c-0.497,4.962,2.356,9.43,7.444,10.298
				C232.141,103.542,225.563,112.722,222.957,112.722z M234.248,97.834c-5.584-0.249-7.691-10.175-2.854-13.276
				C235.242,82.076,236.731,90.39,234.248,97.834z M251.623,110.614c-3.6,0-5.089-3.476-5.338-6.205l1.987-3.971l2.481-4.715
				c2.729-3.599,5.335-6.7,8.809-9.803C268.373,78.104,258.199,110.614,251.623,110.614z"/>
		</g>
		<g>
			<path fill="#1D1D1B" d="M159.881,126.627c-0.344-0.482-0.895-0.688-1.445-0.756c-0.273,0.068-0.549,0.068-0.824,0.138
				c-1.101,0.206-4.333,0.067-5.364-0.069c-2.063-0.206-2.958,1.444-4.608,4.745c-0.619,1.101-5.64,14.306-6.739,17.744
				c-0.207,0.619-0.482,1.375-0.826,1.857c-0.344-0.137-0.412-0.345-0.55-0.688c-0.344-0.758-0.688-1.65-1.032-2.476
				c-0.824-1.994-1.65-3.99-2.545-5.915c-0.48-1.17-0.825-2.27-1.237-3.439c-0.344-1.443-0.963-2.82-1.375-4.47
				c-0.413-1.514-0.963-3.027-0.963-4.678c0-0.963-0.895-1.926-1.856-1.994c-1.377-0.138-2.753-0.138-4.128,0.068
				c-0.757,0.139-1.65,0.481-2.27,0.481c-1.307,0-1.787,2.545-1.031,2.545c0.825,0.206,1.65,0.275,2.544,0.068l0.757-0.344
				c0.345,0.069,0.551,0.138,0.619,0.481c0.069,0.275,0,0.551,0,0.894c0,2.752-0.068,5.572-0.206,8.393
				c-0.068,2.337-0.206,4.745-0.275,7.015l0.207,8.94c0.068,1.031,0.136,1.995,0.136,2.957c0.07,1.1,0.07,2.063,0.139,3.097
				c0,1.581,0,3.094,0.206,4.676c-0.206,0.137-0.345,0.345-0.55,0.481c-0.206,0.068-0.413,0.206-0.619,0.206
				c-0.206,0.068-0.481,0.138-0.618,0.275c-0.275,0.068-0.482,0.481-0.414,0.757c0.07,0.275,0.345,0.48,0.619,0.48l1.17-0.138
				c1.513-0.412,2.888-0.824,4.47-0.48c0.895,0.138,1.651-0.344,2.407-0.551c0.413-0.138,0.688-0.687,0.619-1.031
				c0-0.345-0.411-0.825-0.757-0.895c-0.205,0-0.344,0-0.549-0.069c-0.344-0.067-0.688-0.067-1.101-0.205
				c-0.345,0-0.62-0.275-0.688-0.551s-0.137-0.619-0.137-0.963c0.274-0.826,0.137-1.72,0.137-2.545
				c-0.068-1.307,0-2.683,0.068-4.058c0-0.757,0-1.514,0.069-2.2c0-1.514-0.138-3.096-0.069-4.609c0-2.475-0.068-4.813,0.069-7.22
				c0-0.482-0.206-0.965,0.138-1.376c0.55,0.138,0.619,0.411,0.756,0.757c0.758,2.2,1.652,4.331,2.339,6.533
				c0.756,2.2,1.514,4.265,2.27,6.533c0.413,1.102,1.238,1.651,2.27,2.063c0.275,0.138,0.551,0.069,0.757-0.138
				c0.274-0.068,0.413-0.344,0.55-0.55l1.238-2.545c0.344-0.757,0.551-1.651,0.825-2.477c0.275-0.893,0.481-1.787,0.825-2.612
				c1.307-3.096,6.74-16.575,7.084-17.47c0.137-0.138,0.275-0.274,0.345-0.413c0.136-0.206,0.343-0.345,0.481-0.069l0.205,1.032
				c-0.067,0.895-0.067,1.72-0.137,2.683c-0.139,3.646-0.206,7.222-0.413,10.729c-0.069,2.545-0.206,5.021-0.345,7.429
				c-0.205,2.888-0.343,5.708-0.48,8.665c-0.068,0.964-0.068,1.857-0.068,2.752c-0.069,0.481-0.138,0.963,0,1.582
				c0.206,0.551,0.068,0.962-0.551,1.237l-1.031,0.551c-0.206,0.068-0.274,0.344-0.139,0.618c0.276,0.414,0.552,0.619,0.895,0.551
				c0.826-0.412,1.789-0.345,2.683-0.551c0.825-0.205,1.582-0.344,2.407-0.274c2.27,0.55,3.576-1.376,2.133-1.995
				c-0.275-0.137-0.688-0.137-1.032-0.275c-0.343,0-0.618-0.205-0.825-0.274c-0.069-0.139-0.137-0.275-0.137-0.345
				c-0.07-1.237,0.344-12.035,0.411-13.41l0.413-7.841c0-1.17,0-2.27,0-3.37c0-1.375-0.068-2.613,0.069-3.988
				c0.068-1.307,0.138-2.684,0.068-3.99c0-0.825-0.068-1.514,0-2.338c0-0.413,0.138-0.688,0.688-0.757
				c0.205-0.069,0.411-0.069,0.687-0.137c0.619-0.139,1.308-0.207,1.994-0.207c0.551-0.137,1.17-0.345,1.651-0.688
				c0.275-0.206,0.344-0.757,0.138-1.032C160.363,126.971,160.019,126.834,159.881,126.627z"/>
			<path fill="#1D1D1B" d="M182.506,127.727c-0.618-0.068-1.168-0.205-1.719-0.343c-0.481-0.069-0.824-0.138-1.308-0.138
				l-8.32-0.138c-1.031-0.138-2.064-0.069-3.026,0.068c-0.55,0.138-1.032,0.138-1.583,0.207c-0.895,0.138-1.719,0.343-2.612,0.481
				c-0.344,0.205-0.619,0.48-0.688,0.824c-0.068,0.689,0,1.376,0.275,1.995c0.137,0.412,0.413,0.481,0.756,0.481
				c0.344,0,0.619-0.069,0.757-0.55c0.069-0.206,0.138-0.481,0.275-0.757c0.068-0.206,0.413-0.344,0.688-0.206
				c0.137,0.068,0.344,0.274,0.344,0.412c0,0.551-0.139,1.238-0.139,1.858c0.139,1.306-0.068,2.612-0.205,3.987
				c-0.207,3.027-0.346,6.054-0.482,9.218c-0.068,1.786-0.068,3.507-0.206,5.294c-0.344,4.677-0.551,9.286-0.275,13.825v1.169
				c0,0.343,0.413,0.688,0.138,1.169c-0.413,0.206-0.825,0.138-1.307,0.068h-1.444c-0.138,0-0.344,0.138-0.344,0.275
				c-0.069,0.275,0,0.619,0.138,0.825c0.274,0.139,0.481,0.274,0.757,0.344c1.443,0.551,3.026,0.825,4.539,0.825
				c1.581,0.069,3.232-0.138,4.883-0.206c0.895-0.068,1.788-0.068,2.752-0.205c0.48,0,0.962,0,1.442,0.067
				c1.514,0.206,3.097,0.138,4.609,0c0.344-0.067,0.619-0.137,0.824-0.412c0.414-0.413,0.689-1.101,0.826-1.72l0.207-2.2
				c0.067-0.62-0.139-0.964-0.619-1.308c-0.208-0.068-0.414-0.206-0.619-0.275c-0.345-0.205-0.757-0.067-0.895,0.344l-0.412,1.514
				c-0.139,0.481-0.414,0.757-0.825,0.826c-0.413,0.068-0.827,0.205-1.238,0.205l-2.339,0.206c-1.17,0-2.476,0.069-3.714,0.069
				c-0.618,0-1.169-0.137-1.788-0.205c-0.344-1.445-0.551-2.752-0.48-4.196c0-0.824,0.137-1.788,0.067-2.683
				c-0.067-3.095,0.275-6.19,0.551-9.215c0.068-0.345,0.138-0.757,0.481-0.964c0.618,0,1.307,0.207,1.993,0.274
				c0.758,0.139,1.445,0.139,2.064,0.139c0.138,0.275,0.206,0.275,0.206,0.413c0.206,1.306,0.963,1.856,1.857,2.407
				c0.55,0.48,1.101,0,1.101-0.757c0-0.275,0-0.62-0.069-0.894c0-0.964-0.068-1.858-0.206-2.753
				c-0.069-0.412-0.275-0.893-0.413-1.376c-0.206-0.549-0.551-0.756-1.101-0.962c-0.688-0.274-1.1,0.07-1.307,0.895v0.275
				c-0.138,0.275-0.275,0.55-0.413,0.619c-1.101,0.206-2.132,0.343-3.231,0.206c-0.414-0.069-0.619-0.275-0.619-0.895v-0.55
				c0.138-2.545,0.275-5.021,0.413-7.359c0.067-2.957,0.137-5.915-0.344-8.941c0,0,0-0.068,0.068-0.138
				c0.275-0.343,0.756-0.136,1.169-0.067l7.222,0.137c0.069,0,0.069,0.068,0.137,0.068c0.208,0.413,0.139,0.895,0,1.308
				c-0.343,1.1-0.137,1.994,0.688,2.75c0.206,0.139,0.344,0.482,0.481,0.619c0.825,0.963,1.581,0.963,1.926,0.069
				c0.068-0.137,0.068-0.274,0.137-0.481c0.138-1.169,0.275-2.407,0.482-3.646c0-0.206,0.068-0.412,0.068-0.757
				C183.47,128.415,183.125,127.934,182.506,127.727z"/>
			<path fill="#1D1D1B" d="M202.793,146.021c-1.1-0.824-2.2-1.649-3.645-2.131c-0.757-0.206-1.514-0.619-2.269-1.101
				c-0.482-0.756-1.102-1.443-1.788-2.2c-0.069-0.207-0.275-0.413-0.275-0.551c-0.207-0.619-0.688-1.444-0.827-2.132
				c-0.411-1.376-0.273-2.82,0.414-4.333c0.413-1.307,3.231-3.92,6.189-3.508c0.344,0.069,0.757,0.345,0.963,0.413l1.444,1.513
				c0.55,0.619,1.101,3.027,1.307,3.164c1.17,0.206,1.582,0.206,2.34-0.688l-0.758-2.269c0,0-0.137-0.069-0.137-0.207
				c-0.414-0.825-0.963-1.513-1.308-1.994c-4.401-4.607-8.321-4.472-12.173-0.757c-0.344,0.413-0.757,0.757-1.032,1.031
				c-1.031,0.688-1.651,3.509-1.651,3.989c-0.273,2.064-1.443,5.434,3.715,10.042c0.481,0.412,1.307,0.688,1.789,1.1
				c0.48,0.345,0.962,0.618,1.306,0.894c1.17,0.895,2.27,1.721,3.302,2.684c0.413,0.275,0.688,0.687,0.894,1.1
				c0.825,1.17,1.17,2.34,1.651,3.853c0.274,0.824,0.274,1.787,0.274,2.818c-0.137,1.651-0.688,3.233-0.963,4.815
				c-0.344,1.719-1.168,3.164-2.132,4.539c-0.344,0.619-0.825,1.032-1.307,1.581c-0.345,0.344-0.756,0.482-1.375,0.344
				c-0.688-0.205-1.375-0.344-2.063-0.824c-2.132-1.513-3.439-5.847-3.302-9.422c0-0.275,0.275-0.482,0.345-0.688
				c0.273-0.688,0.206-1.031-0.62-1.307c-0.206,0-0.481-0.138-0.757-0.069c-0.893,0.069-1.994,0.207-3.025,0.345
				c-0.137,0-0.62,0.206-0.825,0.344c-0.206,0.138-0.206,0.757,0,0.894c0.138,0.068,0.344,0.207,0.688,0.275
				c0.137,0.138,0.55,0.274,0.824,0.274c0,0.275,0,0.482-0.068,0.551c-0.138,0.688-0.138,1.238-0.069,1.927
				c0.069,0.48,0,1.168,0,1.856c0,0.205-0.068,0.48,0.069,0.619c0.206,1.856,1.101,3.988,2.682,5.157
				c3.164,2.613,7.428,2.821,10.248,1.238c1.925-0.895,3.302-2.407,4.401-4.126c0.55-0.895,0.963-2.064,1.307-3.164
				c0.618-1.994,0.757-3.921,0.757-5.983c0-1.513-0.274-2.958-0.825-4.333C205.82,149.393,204.719,147.534,202.793,146.021z"/>
			<path fill="#1D1D1B" d="M226.451,146.021c-1.101-0.824-2.199-1.649-3.645-2.131c-0.758-0.206-1.514-0.619-2.27-1.101
				c-0.482-0.756-1.102-1.443-1.789-2.2c-0.068-0.207-0.276-0.413-0.276-0.551c-0.204-0.619-0.687-1.444-0.823-2.132
				c-0.414-1.376-0.275-2.82,0.412-4.333c0.411-1.307,3.232-3.92,6.191-3.508c0.342,0.069,0.754,0.345,0.962,0.413l1.444,1.513
				c0.549,0.619,1.101,3.027,1.307,3.164c1.169,0.206,1.582,0.206,2.338-0.688l-0.756-2.269c0,0-0.138-0.069-0.138-0.207
				c-0.413-0.825-0.964-1.513-1.308-1.994c-4.401-4.607-8.321-4.472-12.173-0.757c-0.345,0.413-0.756,0.757-1.031,1.031
				c-1.032,0.688-1.65,3.509-1.65,3.989c-0.275,2.064-1.445,5.434,3.713,10.042c0.483,0.412,1.308,0.688,1.789,1.1
				c0.481,0.345,0.963,0.618,1.307,0.894c1.17,0.895,2.271,1.721,3.303,2.684c0.412,0.275,0.686,0.687,0.895,1.1
				c0.824,1.17,1.166,2.34,1.649,3.853c0.274,0.824,0.274,1.787,0.274,2.818c-0.138,1.651-0.687,3.233-0.962,4.815
				c-0.345,1.719-1.171,3.164-2.133,4.539c-0.345,0.619-0.825,1.032-1.307,1.581c-0.343,0.344-0.757,0.482-1.375,0.344
				c-0.688-0.205-1.376-0.344-2.063-0.824c-2.133-1.513-3.439-5.847-3.301-9.422c0-0.275,0.274-0.482,0.344-0.688
				c0.274-0.688,0.205-1.031-0.619-1.307c-0.206,0-0.481-0.138-0.757-0.069c-0.895,0.069-1.994,0.207-3.026,0.345
				c-0.138,0-0.619,0.206-0.824,0.344c-0.208,0.138-0.208,0.757,0,0.894c0.136,0.068,0.343,0.207,0.687,0.275
				c0.138,0.138,0.551,0.274,0.826,0.274c0,0.275,0,0.482-0.069,0.551c-0.138,0.688-0.138,1.238-0.068,1.927
				c0.068,0.48,0,1.168,0,1.856c0,0.205-0.069,0.48,0.068,0.619c0.206,1.856,1.101,3.988,2.683,5.157
				c3.165,2.613,7.428,2.821,10.249,1.238c1.925-0.895,3.3-2.407,4.401-4.126c0.549-0.895,0.963-2.064,1.307-3.164
				c0.619-1.994,0.756-3.921,0.756-5.983c0-1.513-0.275-2.958-0.824-4.333C229.477,149.393,228.377,147.534,226.451,146.021z"/>
			<path fill="#1D1D1B" d="M244.743,127.658c-0.411-0.137-0.687-0.344-1.03-0.274c-1.102-0.138-2.201-0.345-3.164-0.275
				c-1.376,0-2.684,0.206-3.922,0.344c-0.618,0-1.03,0.274-1.513,0.757c-0.205,0.206-0.138,0.756,0.138,0.895
				c0.481,0.137,0.896,0.275,1.238,0.205h1.787v2.132c-0.137,0.688-0.205,1.376-0.205,2.201c-0.207,2.408-0.274,5.021-0.344,7.359
				c0,0.964-0.139,1.788-0.139,2.683c-0.067,2.201-0.067,4.47-0.137,6.603c-0.068,2.752,0.137,5.502,0.137,8.253
				c0,1.65-0.067,3.37,0,4.952c0,0.894-0.137,1.649-0.412,2.477c-0.139,0.412-0.344,0.824-0.756,0.824l-1.308,0.413
				c-0.067,0.138-0.067,0.413,0,0.55c0.207,0.482,0.825,0.758,1.444,0.758c0.826-0.069,2.82,0.067,3.645,0.067
				c0.619-0.137,1.239,0,1.789-0.206c0.275-0.069,0.619-0.137,0.895-0.275c0.137-0.205,0.275-0.344,0.207-0.618l-0.482-0.344
				c-0.412-0.069-0.826,0.137-1.307-0.138c0.138-0.138,0.207-0.413,0.138-0.551c0.069-0.824,0.274-1.514,0.343-2.2
				c0.069-0.688,0-1.444-0.068-2.133l-0.068-5.502c0.068-1.169,0.068-2.27,0.137-3.37c0.069-1.443,0-3.025,0-4.47
				c0.069-1.858,0.207-3.645,0.275-5.503c0.069-0.962,0.139-1.995,0.139-3.026c0-1.375,0-2.819,0.205-4.264
				c0.139-0.481,0.068-0.962,0.068-1.307c0.07-0.48,0-0.894,0.07-1.308c0.137-0.618,0.068-1.168,0.137-1.787
				c-0.068-0.344-0.068-0.825,0-1.308c-0.068-0.893,0.068-0.963,1.17-1.031c0.207,0,0.412,0.068,0.619,0.068
				c0.136,0,0.344-0.205,0.481-0.205c0.411-0.139,0.618-0.825,0.274-1.101C245.088,127.865,244.881,127.658,244.743,127.658z"/>
			<path fill="#1D1D1B" d="M278.443,127.246c-0.962-0.275-2.063-0.207-3.096-0.069c-0.275,0.069-0.55,0.138-0.893,0.138
				c-1.24,0-2.27,0.412-3.439,0.619c-0.414,0.137-0.689,0.275-0.963,0.551c-0.275,0.344-0.206,0.824,0.206,0.895
				c0.206,0.137,0.413,0.137,0.618,0.137c0.414,0.138,0.551,0.344,0.62,0.825c-0.069,0.069-0.069,0.138-0.069,0.275
				c-0.48,11.897-0.48,13.273-0.412,14.513c-0.068,0.687,0,1.306,0,1.855c0,0.619-0.068,1.169,0,1.72
				c0.066,2.751-0.068,5.434-0.068,8.116c0,0.205-0.07,0.344-0.138,0.894l-0.551-0.825c-0.481-1.032-1.032-2.2-1.513-3.164
				c-0.344-0.757-0.551-1.581-0.895-2.339c-0.344-0.688-0.619-1.582-1.033-2.406c-0.48-1.031-2.887-6.81-3.712-8.116
				c-1.375-2.133-2.407-4.402-3.302-6.739c-0.619-1.789-1.513-3.37-2.407-5.021c-0.963-1.995-1.925-0.825-3.231-1.101l-2.752,0.206
				c-1.031,0-1.237,0.895-1.445,1.1c-0.48,0.688-0.067,1.721,1.103,1.651c0.272,0,0.55-0.069,0.755-0.069
				c0.482,0.069,0.688,0.345,0.688,0.758c0,1.1,0.07,2.2,0.07,3.231c0,3.232-0.138,6.534-0.345,9.766
				c-0.206,2.408-0.481,4.885-0.206,7.223l-0.069,0.343c-0.138,1.994-0.206,3.989-0.206,5.984c0,1.857-0.137,3.714-0.206,5.57
				c0,0.964,0,1.72-0.138,2.478c-0.48,0.411-1.031,0.687-1.307,0.962c-0.412,0.413-1.514,0.619-1.65,0.824
				c-0.139,0.208,0,0.62,0.206,0.757c0.206,0.207,0.481,0.207,0.757,0.207c0.344-0.069,0.757-0.207,1.238-0.275
				c0.824-0.205,1.65-0.205,2.545,0c1.238,0.345,2.199-0.344,2.27-1.65c0.068-1.169,0.274-2.133,0.136-3.302v-0.618
				c0.139-1.307,0.275-2.477,0.345-3.783c0.139-2.544,0.275-5.089,0.345-7.703c0.137-2.613,0.204-5.157,0.204-7.841
				c0.07-2.201,0.209-4.401,0.346-6.532c0-0.069,0.139-0.207,0.274-0.344c0.345,0.619,0.757,1.168,0.964,1.925
				c0.824,1.65,1.581,3.37,2.407,5.021c0.55,1.101,1.03,2.201,1.581,3.301c0.963,1.995,1.927,4.059,2.682,6.19l3.99,10.729
				c0.619,0.963,1.445,1.925,2.131,2.957c0.345,0.551,0.824,0.894,1.582,0.894c0.688,0.068,1.102-0.137,1.307-0.756
				c0.207-0.413,0.757-5.915,0.827-8.527c0-1.309-0.345-2.752,0.755-14.443l0.208-4.471c0-1.17-0.139-2.271-0.139-3.438
				c-0.069-0.482,0-0.895,0-1.445c-0.345-1.856,0.206-3.783-0.276-5.571c0.207-0.068,0.345-0.138,1.445-0.068
				c0.896-0.137,1.515-0.412,2.063-0.756c0.275-0.139,0.482-0.481,0.346-0.826C278.856,127.521,278.648,127.314,278.443,127.246z"/>
			<path fill="#1D1D1B" d="M306.227,147.673c-0.48-0.139-5.984-0.55-7.771-0.482c-0.275,0-0.619,0.139-0.825,0.206
				c-0.275,0.207-0.62,0.413-0.688,0.826c0,0.275,0.412,0.618,0.823,0.894c0.414,0.139,0.759,0.207,1.239,0.207
				c0.551,0.069,1.169,0.069,1.721,0.069c0.272,0,0.549,0.138,0.823,0.138c0.207,0.756,0.07,1.513,0,2.405
				c-0.274,1.721-2.406,10.111-4.882,12.381c-0.825,0.757-2.476,1.376-3.921,0.894c-0.205-0.206-0.55-0.206-0.756-0.275
				c-1.238-0.412-2.133-1.237-2.751-2.337c-0.481-0.827-0.825-1.72-1.171-2.752c-1.1-3.438-1.512-6.878-1.375-10.522
				c0.069-1.444,0.208-2.819,0.208-4.265c0-1.856,0.205-3.92,0.549-5.845c0.275-2.064,1.789-10.524,8.735-10.249
				c0.205,0,0.344-0.068,0.619-0.068c0.961,0.068,1.65,0.344,2.406,0.963c0.481,0.412,0.757,1.031,0.62,1.72
				c0,0.137-0.069,0.48,0,0.619c0.137,1.237,1.306,1.995,2.405,1.65c0.207-0.207,0.482-0.413,0.551-0.55
				c0.207-0.482,0.413-0.895,0.413-1.239c0.069-1.1,0.138-2.2,0.275-3.3c0-0.208-0.138-0.619-0.275-0.826
				c-0.481-0.481-1.1-0.963-1.719-0.963c-0.756,0-0.964,0.688-1.239,1.17c0,0.068-0.068,0.068-0.274,0.274l-1.308-0.894
				c-0.618-0.275-1.306-0.62-2.131-0.688c-12.517-1.376-14.719,11.896-15.199,14.785c-0.344,2.34-0.689,4.747-0.828,7.154
				c-0.066,1.03-0.066,1.994-0.066,3.026c0.066,2.613,0.481,5.157,1.375,7.564c0.757,1.994,1.445,3.92,2.82,5.57
				c1.375,1.582,2.889,2.89,4.608,3.989c3.231,1.858,8.391-0.687,9.078-1.925c0.343-0.482,0.55-0.826,0.963-1.307
				c0.894-1.238,1.718-2.613,2.269-4.059c0.276-0.825,1.445-4.951,1.651-6.189c0.138-0.62,0.345-3.439,0.551-4.195
				c0.274-0.688,0.206-1.375,0.274-1.994c-0.344-0.207,1.17,0.48,2.682,0c0.07-0.139,0.139-0.207,0.139-0.414
				C307.052,148.223,306.982,147.879,306.227,147.673z"/>
		</g>
		<path fill="#1D1D1B" d="M313.986,200.884c-2.234,2.854-8.066,11.043-13.401,11.043c-3.35,0,11.996-32.702,14.726-38.286
			c1.363-2.729,0.124-5.46-3.6-6.7c-3.35,4.715-5.543,10.493-10.629,21.411c-1.861-4.838-5.584-6.699-7.818-5.335
			c-5.063,3.236-14.5,12.245-17.826,20.68c-2.831,3.52-7.161,8.23-11.209,8.23c-4.467,0,9.553-18.116,11.912-26.677
			c0.372-2.358-2.606-4.963-4.84-4.095c-7.816,3.475-18.363,16.875-22.458,23.575c2.357-5.335,4.839-10.92,10.051-21.217
			c1.487-2.855-4.964-6.205-6.452-2.979c-3.46,7.456-6.916,14.766-9.667,20.814c-2.448,3.179-7.966,10.578-13.04,10.578
			c-4.466,0,9.555-18.116,11.91-26.677c0.373-2.358-3.35-5.955-4.838-4.095c-2.481,3.351-4.467,5.956-6.205,8.934
			c-5.707,8.438-15.012,21.838-18.859,21.838c-4.468,0,9.553-18.116,11.912-26.677c0.372-2.358-3.352-5.955-4.838-4.095
			c-3.168,4.003-6.691,9.424-9.442,14.756c-2.181,0.983-4.547,1.508-6.567,1.623c1.985-7.445,1.737-14.643-3.227-16.504
			c-1.24-0.496-2.356-0.496-3.845,0.869c-2.607-1.365-4.219-3.35-6.453-1.116c-5.431,5.431-12.737,17.377-12.5,25.658
			c-3.47,3.496-8.487,7.831-12.191,7.831c-4.468,0,8.063-17.002,12.035-22.488c0-3.838-9.431-6.032-11.292-7.349
			c3.599-5.595,4.591-9.872-2.605-9.872c-7.32,0-8.686,11.408-1.985,13.272c-2.488,4.062-5.719,8.514-9.284,12.956
			c-0.04,0.029-3.277,4.021-3.272,4.072c-2.797,3.31-6.633,7.063-10.245,7.063c-4.467,0,9.679-18.239,12.036-26.801
			c0.497-3.102-5.088-5.336-6.08-2.979c-0.496,1.241-2.481,4.468-3.226,5.832c0-3.722-5.087-6.576-7.817-4.963
			c-7.569,4.839-24.94,22.582-16.999,32.012c3.971,4.592,13.4-5.831,16.999-9.802c-0.869,2.854-1.861,9.802,2.233,9.802
			c6.157,0,12.123-6.097,16.171-11.141c4.825-5.544,8.594-10.567,11.47-15.064c1.737,0.878,3.598,1.536,5.708,2.084
			c-4.839,7.35-17.992,26.107-6.7,26.107c4.832,0,11.052-4.447,15.3-8.435c0.279,1.257,0.784,2.392,1.574,3.347
			c2.358,2.729,6.701,4.095,10.052,4.095c4.963,0,10.546-7.94,13.4-16.378c1.723,0,3.793-0.227,5.872-0.791
			c-3.967,8.581-5.307,16.176,0.953,16.176c4.343,0,10.422-6.327,15.758-13.276c-2.854,7.321-3.351,13.276,2.233,13.276
			c4.634,0,9.618-3.806,13.185-7.577c-0.525,1.222-0.998,2.356-1.396,3.358c-1.612,3.724,5.584,5.957,6.825,3.599
			c7.567-14.889,21.588-28.041,22.457-28.289c-4.964,9.181-18.487,28.909-6.575,28.909c4.542,0,9.427-3.657,12.977-7.354
			c-0.367,2.71,0.134,5.242,1.914,7.354c2.978,3.6,15.015-3.97,20.97-14.269c-1.364,2.73-5.088,14.269,0.497,14.269
			c7.195,0,15.26-9.181,17.494-13.152C315.848,200.884,314.481,200.264,313.986,200.884z M126.775,208.204
			c-2.233,2.11-4.591,3.972-7.197,5.336c-4.094-1.116,17.372-30.399,19.604-23.327c-0.496,1.614-1.24,2.979-1.86,4.342
			C134.84,198.279,134.716,200.512,126.775,208.204z M163.473,177.085c3.723,0,1.489,4.169,0.125,6.034
			C160.744,180.707,162.109,177.085,163.473,177.085z M189.531,212.299c-9.679,0,0.869-19.355,2.729-23.078
			c-0.496,4.962,2.358,9.431,7.445,10.299C198.712,203.117,192.136,212.299,189.531,212.299z M200.822,197.41
			c-5.584-0.249-7.693-10.175-2.854-13.276C201.814,181.652,203.304,189.966,200.822,197.41z M279.988,213.54
			c-3.6-0.992,13.275-24.196,20.348-22.954l-1.859,4.094C293.885,202.496,287.432,209.817,279.988,213.54z"/>
		<g>
			<path fill="#1D1D1B" d="M163.051,260.101l-0.826,0.069c0.069-0.413,0.069-0.688,0.069-1.032l0.344-2.82
				c0-0.756,0.068-1.649,0.068-2.476c-0.068-1.031,0.069-2.063-0.068-3.164c-0.206-1.237,0.068-2.612-0.138-3.851
				c0.275-2.063,0-4.059-0.068-6.19l-0.413-7.909c0-3.231-1.101-6.189-2.476-8.94c-0.345-0.825-0.963-1.514-1.513-2.063
				c-0.619-0.894-1.583-1.169-2.614-1.031c-1.444,0.138-2.89,0.481-4.058,1.65c-1.721,1.65-3.232,3.37-4.127,5.64
				c-1.238,2.751-2.2,5.708-2.819,8.734c-0.275,1.375-0.481,2.957-0.757,4.265c-0.55,3.301-1.032,6.671-1.444,9.972
				c-0.138,1.238-0.274,2.339-0.274,3.439c0,1.994,0,3.783,0.068,5.64c-0.068,0.275-0.068,0.619-0.138,0.963
				c-0.275,0.068-0.481,0.138-0.619,0.207c-0.481,0.205-1.032,0.411-1.513,0.756c-0.207,0.138-0.275,0.55,0,0.757
				c0.137,0.206,0.343,0.344,0.551,0.481c0.824,0.411,1.65,0.411,2.475,0.481c0.619,0.068,1.376,0,2.064,0.205
				c0.618,0.275,2.063-0.205,2.132-0.962c0.068-0.551-0.069-0.895-0.619-1.032c-1.307-0.412-0.482-1.101-0.275-3.507
				c0-0.963,0-1.926,0.068-2.889c0.069-0.825,0.207-1.513,0.207-2.407c0.068-1.514,0.274-2.819,0.412-4.265
				c0.345-1.444,0.551-2.75,0.826-4.264c0.068-0.826,0.205-1.582,0.687-2.476c0.413-0.138,0.895-0.207,1.375-0.275
				c1.927-0.138,3.922-0.069,5.778-0.688h0.412c0.344-0.067,0.757,0.208,0.757,0.551c0.07,0.757,0.07,1.582,0.138,2.27
				c0,1.375,0.068,2.889,0.068,4.194c0.069,1.926,0.138,3.783,0.069,5.572c0.138,2.544-0.205,5.157,0.619,7.702
				c-0.413,0.139-0.757,0.345-0.963,0.551c-0.412,0.274-0.345,0.825,0,0.963c0.481,0.275,1.03,0.551,1.581,0.551l4.472-1.445
				c0.137,0,0.343-0.068,0.55-0.138c0.551-0.067,0.826-0.551,0.826-1.101C163.807,260.376,163.532,260.101,163.051,260.101z
				 M156.448,238.438c-1.375,0.344-2.612,0.411-3.782,0.618c-1.238,0.206-2.476,0.412-3.646,0.688
				c-0.068-0.069-0.275-0.138-0.275-0.344c-0.137-1.651-0.068-3.37,0.345-5.021c0.206-0.895,0.344-1.72,0.481-2.613
				c0.206-0.964,0.206-1.996,0.412-2.821c0.139-1.168,0.758-2.406,1.376-3.301c0.481-0.756,1.168-1.513,1.787-2.132
				c0.345-0.344,0.964-0.205,1.17,0.275c0.895,2.27,1.789,4.677,1.856,7.152c0.138,1.994,0.275,4.127,0.345,6.122
				C156.517,237.543,156.448,237.954,156.448,238.438z"/>
			<path fill="#1D1D1B" d="M196.269,222.068c-0.964-0.275-2.063-0.207-3.096-0.07c-0.274,0.07-0.549,0.139-0.894,0.139
				c-1.238,0-2.271,0.412-3.438,0.618c-0.414,0.138-0.688,0.275-0.964,0.552c-0.274,0.343-0.206,0.824,0.207,0.893
				c0.206,0.139,0.412,0.139,0.619,0.139c0.413,0.137,0.549,0.344,0.618,0.824c-0.069,0.07-0.069,0.138-0.069,0.275
				c-0.48,11.898-0.48,13.273-0.411,14.512c-0.069,0.688,0,1.307,0,1.857c0,0.619-0.069,1.169,0,1.72
				c0.068,2.75-0.069,5.433-0.069,8.115c0,0.206-0.068,0.345-0.138,0.894l-0.55-0.824c-0.481-1.033-1.032-2.201-1.514-3.164
				c-0.345-0.757-0.55-1.581-0.894-2.339c-0.343-0.688-0.619-1.582-1.032-2.406c-0.48-1.033-2.889-6.81-3.713-8.117
				c-1.376-2.132-2.407-4.401-3.302-6.74c-0.619-1.787-1.514-3.368-2.407-5.021c-0.963-1.994-1.927-0.824-3.232-1.1l-2.751,0.206
				c-1.032,0-1.238,0.894-1.444,1.101c-0.481,0.688-0.068,1.721,1.1,1.65c0.275,0,0.551-0.068,0.757-0.068
				c0.48,0.068,0.688,0.344,0.688,0.757c0,1.1,0.067,2.2,0.067,3.232c0,3.231-0.137,6.534-0.343,9.766
				c-0.206,2.407-0.481,4.884-0.206,7.222l-0.069,0.344c-0.138,1.994-0.206,3.988-0.206,5.984c0,1.856-0.138,3.714-0.207,5.569
				c0,0.964,0,1.721-0.137,2.477c-0.482,0.413-1.032,0.688-1.308,0.963c-0.412,0.414-1.512,0.619-1.65,0.825
				c-0.137,0.207,0,0.62,0.206,0.756c0.207,0.208,0.482,0.208,0.757,0.208c0.345-0.069,0.757-0.208,1.238-0.275
				c0.825-0.206,1.649-0.206,2.544,0c1.239,0.343,2.202-0.344,2.27-1.651c0.07-1.169,0.275-2.132,0.139-3.302v-0.618
				c0.137-1.307,0.275-2.476,0.343-3.783c0.138-2.544,0.276-5.089,0.345-7.702c0.138-2.614,0.207-5.157,0.207-7.841
				c0.068-2.201,0.205-4.401,0.343-6.534c0-0.069,0.138-0.205,0.275-0.343c0.344,0.618,0.757,1.168,0.964,1.925
				c0.824,1.651,1.581,3.371,2.405,5.021c0.551,1.102,1.033,2.201,1.583,3.302c0.962,1.994,1.925,4.059,2.682,6.19l3.989,10.729
				c0.619,0.963,1.444,1.925,2.133,2.956c0.343,0.552,0.825,0.895,1.581,0.895c0.688,0.068,1.101-0.138,1.307-0.757
				c0.206-0.413,0.758-5.914,0.825-8.528c0-1.307-0.343-2.75,0.757-14.442l0.207-4.472c0-1.168-0.138-2.27-0.138-3.438
				c-0.069-0.482,0-0.894,0-1.444c-0.344-1.857,0.206-3.783-0.275-5.571c0.206-0.068,0.344-0.138,1.443-0.068
				c0.895-0.139,1.514-0.413,2.064-0.756c0.275-0.139,0.48-0.482,0.344-0.827C196.681,222.343,196.475,222.137,196.269,222.068z"/>
			<path fill="#1D1D1B" d="M222.607,227.982l-0.549-0.825c-5.228-6.81-12.038-6.74-17.814-6.603c-1.651,0-3.164,0.481-4.745,1.307
				c-0.206,0.068-0.481,0.207-0.689,0.412c-0.48,0.344-0.619,0.551-0.48,0.757c0.207,0.138,0.412,0.344,0.619,0.344
				c0.756,0.138,1.65,0.207,2.407,0.138c0.274,0,0.618,0,0.825,0.345c0,0.206,0.068,0.55,0.138,0.825
				c-0.069,1.17-0.138,2.27-0.138,3.507c0.068,2.613-0.551,16.163-0.62,18.433c0,0.137,0,0.274,0.069,0.481
				c0,2.544,0.139,11.211,0.139,11.484c0,0.619-0.069,1.309,0,1.858c-0.758,0.55-1.65-0.138-2.408,0.206
				c0,0.206,0.068,0.481,0.139,0.551c0.412,0.344,0.824,0.55,1.169,0.824c0.618,0.275,1.237,0.757,1.995,0.825
				c1.856,0.275,3.851,0.207,5.64-0.688l2.956-1.237c0.482-0.207,0.964-0.413,1.376-0.688c1.031-0.55,5.09-3.646,5.779-4.54
				c1.029-1.306,1.992-2.543,2.888-3.782c0.481-0.824,0.894-1.719,1.306-2.544c0.619-1.307,1.031-2.545,1.238-3.92
				c0.275-1.238,0.48-2.614,0.619-3.853c0.207-1.101,0.412-2.063,0.412-3.162c-0.07-2.201-0.07-4.402-0.551-6.604
				C223.914,230.526,223.432,229.151,222.607,227.982z M211.604,256.593c-1.308,0.826-2.614,1.721-3.99,2.27
				c-0.412,0.07-0.688,0.139-1.168,0.414c-0.207-1.308-0.275-2.408-0.275-3.439c0-0.344,0.068-0.825,0-1.238
				c0-1.788-0.138-3.646-0.138-5.571c0-3.645-0.069-7.221,0.138-10.865c0.205-2.064,0.138-4.059,0.205-6.123
				c0.139-2.543,0.208-5.088,0.275-7.633c0-0.207,0.069-0.482,0.139-0.757c0.068-0.206,0.275-0.343,0.412-0.413
				c0.412,0,0.757-0.068,1.102-0.068c1.855,0.206,3.645,0.551,5.363,1.375c0.481,0.275,0.895,0.689,1.376,0.964
				c4.125,2.406,4.47,8.321,4.47,11.279C219.513,240.912,217.726,253.292,211.604,256.593z"/>
			<path fill="#1D1D1B" d="M261.201,227.982l-0.55-0.825c-5.228-6.81-12.036-6.74-17.813-6.603c-1.649,0-3.164,0.481-4.745,1.307
				c-0.206,0.068-0.481,0.207-0.687,0.412c-0.483,0.344-0.619,0.551-0.483,0.757c0.207,0.138,0.413,0.344,0.62,0.344
				c0.756,0.138,1.649,0.207,2.406,0.138c0.275,0,0.619,0,0.826,0.345c0,0.206,0.068,0.55,0.138,0.825
				c-0.069,1.17-0.138,2.27-0.138,3.507c0.068,2.613-0.551,16.163-0.619,18.433c0,0.137,0,0.274,0.068,0.481
				c0,2.544,0.137,11.211,0.137,11.484c0,0.619-0.068,1.309,0,1.858c-0.755,0.55-1.65-0.138-2.408,0.206
				c0,0.206,0.071,0.481,0.14,0.551c0.413,0.344,0.825,0.55,1.17,0.824c0.618,0.275,1.237,0.757,1.993,0.825
				c1.857,0.275,3.852,0.207,5.641-0.688l2.957-1.237c0.482-0.207,0.963-0.413,1.376-0.688c1.03-0.55,5.089-3.646,5.776-4.54
				c1.032-1.306,1.995-2.543,2.889-3.782c0.482-0.824,0.895-1.719,1.307-2.544c0.619-1.307,1.031-2.545,1.238-3.92
				c0.274-1.238,0.482-2.614,0.619-3.853c0.207-1.101,0.412-2.063,0.412-3.162c-0.068-2.201-0.068-4.402-0.549-6.604
				C262.508,230.526,262.027,229.151,261.201,227.982z M250.197,256.593c-1.307,0.826-2.613,1.721-3.988,2.27
				c-0.414,0.07-0.689,0.139-1.17,0.414c-0.207-1.308-0.275-2.408-0.275-3.439c0-0.344,0.068-0.825,0-1.238
				c0-1.788-0.137-3.646-0.137-5.571c0-3.645-0.07-7.221,0.137-10.865c0.205-2.064,0.138-4.059,0.205-6.123
				c0.139-2.543,0.208-5.088,0.277-7.633c0-0.207,0.068-0.482,0.137-0.757c0.068-0.206,0.275-0.343,0.412-0.413
				c0.414,0,0.758-0.068,1.102-0.068c1.855,0.206,3.645,0.551,5.363,1.375c0.482,0.275,0.895,0.689,1.377,0.964
				c4.126,2.406,4.47,8.321,4.47,11.279C258.106,240.912,256.318,253.292,250.197,256.593z"/>
			<path fill="#1D1D1B" d="M290.057,233.142c0-0.208,0-0.758-0.067-1.103c-0.275-1.375-0.757-2.75-1.308-3.919
				c-0.825-1.857-1.926-3.302-3.096-4.608c-3.576-4.127-10.109-2.063-12.86,1.307c-0.757,0.963-1.375,1.995-1.925,2.958
				c-1.102,1.582-1.926,3.232-2.477,5.227c-0.412,1.032-0.688,2.2-0.963,3.233l-0.206,1.168c-0.55,3.714-0.825,7.429-0.55,11.073
				c0.137,1.925,0.55,3.852,1.375,5.57c0.48,0.826,0.825,1.583,1.238,2.201c1.444,2.201,2.888,4.196,4.882,5.709
				c1.033,0.757,2.133,1.376,3.234,1.788c0.274,0.069,0.687,0.137,0.962,0.069c0.756-0.069,1.443-0.208,2.063-0.551
				c3.37-1.857,5.914-5.915,6.121-6.603c1.442-4.608,1.719-5.434,1.994-6.396c0.343-2.134,0.688-4.402,1.101-6.465
				c0.413-2.614,0.344-5.296,0.48-7.704C290.193,235.136,290.057,234.172,290.057,233.142z M285.586,238.918v0.895
				c0,2.406-0.137,4.951-0.551,7.221c-0.205,1.17-0.549,2.27-0.755,3.301c-0.345,1.582-0.825,3.164-1.306,4.815
				c-0.346,1.031-0.895,2.132-1.309,3.232c-0.412,0.895-1.031,1.719-1.787,2.2c-0.688,0.62-1.582,0.964-2.477,0.964
				c-0.551,0-0.963-0.344-1.238-0.895c-0.688-1.238-1.445-2.27-1.855-3.715c-0.275-0.894-0.414-1.719-0.553-2.613
				c-0.342-1.513-0.479-3.095-0.617-4.677c-0.068-0.344-0.068-0.894,0-1.306c0.138-1.445,0.205-2.82,0.138-4.265
				c-0.069-0.757,0-1.583,0.067-2.27c0-0.48,0.07-1.032,0.07-1.444c0-2.2,0.412-4.265,0.825-6.396
				c0.274-1.032,0.479-2.338,0.688-3.439c0.207-1.168,0.55-2.338,0.825-3.508c0.207-0.894,0.895-1.375,1.308-2.131l0.275-0.206
				c3.093-3.303,6.671,0.48,7.771,7.015c0.275,1.445,0.275,3.026,0.48,4.54C285.655,237.062,285.586,237.954,285.586,238.918z"/>
		</g>
		<g>
			<path fill="#1D1D1B" d="M169.439,267.985c-2.729,0-5.087,2.481-4.838,6.327c-3.475,3.848-7.073,7.569-9.802,10.3
				c-11.293,4.219-14.518,22.83-0.372,22.83c17.742,0,20.845-23.327,16.501-33.625C170.804,273.445,173.411,267.985,169.439,267.985
				z M153.31,304.961c-7.196,0-2.358-18.984,6.7-18.735c2.109,0,2.109-2.482-0.124-2.482c-0.621,0-1.117,0.125-1.613,0.125
				c1.861-1.861,3.847-3.97,6.204-6.205C166.338,290.567,160.382,304.961,153.31,304.961z"/>
			<path fill="#1D1D1B" d="M283.336,290.816c-4.592,7.072-13.771,13.772-22.21,10.67c-3.35-1.117-3.226-3.226-0.372-8.313
				c0.619,0.62,1.985,0.743,2.357,0.743c10.67,0,16.378-11.91,16.378-15.757c0-1.986-3.599-8.811-7.071-7.569
				c-4.123,1.411-16.879,13.827-18.027,24.471c-2.775,3.242-6.5,6.797-10.018,6.797c-4.467,0,9.555-18.115,11.912-26.677
				c0.373-2.356-2.604-4.963-4.838-4.094c-5.211,2.233-14.393,11.415-20.473,18.612c2.977-5.088,6.203-10.671,7.32-14.519
				c0.373-2.356-2.606-4.963-4.84-4.094c-7.816,3.474-18.364,16.874-22.458,23.574c2.357-5.335,4.839-10.919,10.051-21.217
				c1.487-2.854-4.962-6.205-6.453-2.979c-2.39,5.15-4.778,10.23-6.935,14.874c-2.441,1.312-5.244,1.991-7.584,2.125
				c1.985-7.444,1.737-14.641-3.226-16.503c-1.241-0.496-2.358-0.496-3.847,0.869c-2.605-1.365-4.219-3.35-6.452-1.116
				c-6.825,6.824-16.627,23.946-10.671,31.143c2.358,2.73,6.7,4.097,10.05,4.097c4.964,0,10.547-7.941,13.4-16.38
				c2.002,0,4.47-0.306,6.878-1.093c-2.251,4.891-4.154,9.148-5.388,12.259c-1.612,3.725,5.584,5.958,6.824,3.6
				c7.569-14.89,21.59-28.042,22.459-28.29c-4.963,9.182-18.488,28.91-6.575,28.91c0.868-2.109,1.612-3.475,1.983-4.343
				c5.833-11.415,21.838-24.319,22.584-24.567c-4.964,9.182-18.489,28.91-6.578,28.91c4.49,0,9.315-3.572,12.854-7.224
				c0.059,0.599,0.148,1.189,0.301,1.766c4.839,16.626,27.918-0.497,29.904-7.694C284.95,290.692,283.709,290.195,283.336,290.816z
				 M272.666,279.525c3.598,0-0.125,11.663-11.043,12.159C265.469,285.604,271.053,279.525,272.666,279.525z M186.799,302.23
				c-9.677,0,0.869-19.355,2.73-23.078c-0.496,4.963,2.356,9.431,7.445,10.299C195.982,293.051,189.406,302.23,186.799,302.23z
				 M198.092,287.342c-5.585-0.248-7.693-10.174-2.854-13.276C199.083,271.585,200.573,279.898,198.092,287.342z"/>
		</g>
		<g>
			<path fill="#1D1D1B" d="M190.7,311.036c-0.757-0.206-1.444-0.206-2.063-0.274c-1.375-0.068-5.021,0-3.989,1.169
				c0.275,0.345,0.688,0.619,0.895,0.688c0.274,0.137,0.55,0.344,0.894,0.412c-0.344,0.963-0.55,1.995-0.894,2.889
				c-0.137,0.619-0.345,1.101-0.481,1.788c-0.413,2.683-1.032,5.09-1.65,7.565c-0.482,2.201-0.964,4.195-1.513,6.122
				c-0.62,2.2-1.032,4.402-1.514,6.533c-0.207,0.688-0.275,1.376-0.688,1.995c-0.414-0.551-0.344-1.102-0.414-1.651l-2.889-14.58
				l-0.273-1.444c-0.895-2.339-1.651-1.789-3.921-1.789c-0.757,0-0.894,2.063-1.102,3.026c-0.067,0.345-0.343,1.032-0.549,1.375
				l-2.545,9.01c-0.895,2.339-1.788,4.678-2.613,7.085c-0.069,0.206-0.207,0.344-0.413,0.688c-0.206-0.757-0.344-1.443-0.344-1.994
				c0-2.27-0.275-4.265-0.412-6.534c-0.206-1.719-0.275-3.37-0.414-5.228c-0.205-2.132-0.344-4.401-0.619-6.602
				c-0.067-1.17-0.273-2.407-0.549-3.577c-0.138-1.375-0.275-2.613-0.481-4.127c0.137-0.137,0.344-0.55,0.412-0.894
				c0.275-0.344,0.069-0.963-0.344-0.963c-0.344-0.138-0.688-0.138-0.963-0.275l-4.401-0.205l-0.825-0.208
				c-0.414,0-0.619,0.138-0.757,0.551s0.138,0.757,0.412,0.963c0.275,0.275,0.619,0.275,1.032,0.481
				c0.688,0.207,0.824,0.413,0.824,0.963c0,1.651,0.895,10.109,1.102,12.725c0.206,3.575,0.344,7.358,0.618,10.935
				c0.138,1.995,0.345,3.989,0.688,5.846c0.275,2.339,0.756,4.746,1.307,7.153c0.207,1.787,1.238,2.545,2.477,3.025
				c0.275,0.207,0.618,0,0.824-0.344c0.069-0.275,0.207-0.48,0.275-0.756c0.275-1.444,0.826-2.889,1.376-4.333
				c0.756-1.582,1.307-3.232,1.788-5.157c0.413-1.308,0.757-2.684,1.308-3.921c0.687-1.788,1.375-3.508,1.786-5.503
				c0.139-0.757,0.345-1.649,0.551-2.339l0.619-3.576c0-0.068,0.138-0.206,0.206-0.274c0.138,0.068,0.207,0.139,0.207,0.206
				c1.651,6.534,2.271,9.973,2.683,12.243c0.55,3.094,1.238,6.945,2.269,9.903c0.413,1.443,1.307,2.476,1.721,2.956
				c0.413,0.551,1.031,0.207,1.237-0.48c0.275-0.757,0.413-1.306,0.551-1.857c0.757-2.2,1.444-5.157,1.72-7.565
				c0.067-0.275,0.067-0.618,0.205-0.895c0.481-1.718,0.895-3.3,1.17-4.882c0.136-1.033,0.412-2.2,0.755-3.095
				c0.344-1.376,0.825-2.889,1.17-4.265c0.138-0.619,0.138-1.031,0.206-1.375c0.275-1.583,0.551-3.026,0.824-4.266
				c0.414-1.581,1.377-8.114,2.134-10.729c0-0.069,1.03-0.137,1.72-0.55C191.731,312.344,192.076,311.449,190.7,311.036z"/>
			<path fill="#1D1D1B" d="M215.429,321.973c-0.275-1.377-0.757-2.752-1.308-3.92c-0.824-1.858-1.927-3.302-3.095-4.608
				c-3.577-4.126-10.111-2.063-12.861,1.307c-0.757,0.963-1.376,1.994-1.927,2.957c-1.1,1.582-1.925,3.232-2.475,5.228
				c-0.414,1.032-0.689,2.2-0.963,3.232l-0.207,1.17c-0.55,3.713-0.825,7.427-0.55,11.072c0.139,1.925,0.55,3.852,1.375,5.57
				c0.481,0.825,0.825,1.583,1.238,2.201c1.444,2.201,2.889,4.196,4.883,5.709c1.032,0.757,2.133,1.375,3.232,1.787
				c0.275,0.07,0.688,0.138,0.964,0.07c0.757-0.07,1.443-0.208,2.063-0.551c3.369-1.857,5.915-5.915,6.121-6.603
				c1.444-4.609,1.72-5.434,1.995-6.396c0.344-2.134,0.688-4.401,1.1-6.466c0.414-2.613,0.344-5.296,0.482-7.703
				c0.137-0.962,0-1.927,0-2.957C215.498,322.866,215.498,322.316,215.429,321.973z M211.027,328.851v0.894
				c0,2.408-0.138,4.951-0.551,7.221c-0.206,1.17-0.551,2.27-0.757,3.303c-0.344,1.581-0.824,3.163-1.306,4.814
				c-0.345,1.03-0.895,2.132-1.308,3.231c-0.412,0.895-1.031,1.72-1.788,2.2c-0.688,0.62-1.581,0.964-2.476,0.964
				c-0.55,0-0.964-0.344-1.238-0.895c-0.688-1.237-1.444-2.27-1.856-3.714c-0.274-0.894-0.413-1.72-0.55-2.614
				c-0.344-1.512-0.482-3.094-0.619-4.676c-0.069-0.345-0.069-0.894,0-1.307c0.137-1.444,0.206-2.82,0.137-4.264
				c-0.068-0.757,0-1.583,0.069-2.27c0-0.481,0.069-1.032,0.069-1.445c0-2.2,0.411-4.264,0.824-6.396
				c0.275-1.032,0.481-2.339,0.688-3.439c0.207-1.169,0.55-2.338,0.826-3.508c0.206-0.894,0.894-1.376,1.307-2.132l0.274-0.206
				c3.096-3.302,6.671,0.481,7.772,7.016c0.274,1.444,0.274,3.025,0.481,4.539C211.095,326.994,211.027,327.887,211.027,328.851z"/>
			<path fill="#1D1D1B" d="M243.351,351.202c-0.343,0.068-0.552,0.138-0.688,0.413c-0.481,0.275-0.757,0.412-1.169,0.412
				c-0.275,0.069-0.619-0.274-0.895-0.55c-0.344-0.757-0.551-1.375-0.689-2.201c-0.272-1.443-0.479-3.026-0.272-4.539
				c0.068-0.412,0.137-0.688,0.137-1.101c0-1.513-0.274-4.883-0.619-6.189c-0.481-1.514-0.962-2.958-1.444-4.333
				c-0.48-0.895-0.894-1.582-1.307-2.132c-0.895-1.238-1.789-2.27-2.819-3.233c-0.206-0.274-0.345-0.48-0.62-0.687
				c4.128-1.308,5.641-4.54,6.398-5.503c0.962-1.582,1.236-3.233,0.617-4.951l-0.206-0.825c-1.101-2.408-3.026-4.128-5.708-4.678
				c-2.132-0.275-4.265-0.412-6.19-0.344c-2.683,0.207-5.021,0.758-7.222,2.063c-0.687,0.275-1.375,0.756-1.925,1.169
				c-0.207,0.139-0.276,0.275-0.207,0.551c-0.069,0.206,0.274,0.412,0.413,0.412c0.412,0,0.895,0.069,1.237,0
				c0.964-0.206,1.858-0.344,2.751-0.481c0.207,0.138,0.139,0.481,0.069,0.825c0,1.169-0.274,2.407-0.274,3.645
				c0,1.583-0.551,7.635-0.551,8.735c-0.068,1.375-0.274,2.752-0.274,3.989c-0.138,2.683-1.308,15.888-1.444,18.157v1.237
				c-0.689,0.275-1.102,0.413-1.584,0.481c-0.48,0.069-0.549,0.413-0.343,0.757c0.55,0.619,1.237,1.17,2.132,1.17
				c1.857-0.069,3.577,0.067,5.365,0.137c0.275-0.069,0.688-0.069,0.895-0.206c0.137-0.069,0.205-0.55,0.275-0.62
				c0.136-0.205,0-0.411-0.208-0.411c-0.138-0.138-0.138-0.275-0.274-0.345c-0.824-0.206-1.101-0.757-1.031-1.444
				c0.068-1.307,0.068-2.475-0.069-3.782c-0.206-2.271,0.619-10.522,0.55-11.417c0.069-0.206,0.069-0.55,0.069-0.688
				c0.206-1.375,0.206-2.681,0.343-3.851c0-0.688,0-1.376,0.208-1.994c1.718-0.413,1.306,0.068,3.093-0.346
				c0.346,0.07,0.895,0,1.309,0.208c1.375,1.72,2.338,3.92,2.819,5.915c0.138,0.824,0.413,1.788,0.551,2.612
				c0.343,1.857,0.343,4.54,0.55,6.604c-0.137,3.095,0.963,6.877,2.338,8.528c0.414,0.618,2.959,3.37,6.466,1.994
				c0.688-0.275,0.825-1.101,0.55-1.856C244.039,352.165,243.626,351.615,243.351,351.202z M226.844,325.961
				c-0.137-0.618-0.137-1.168-0.067-1.787c0-0.481,0.138-1.033,0.067-1.514c0-0.825,0-1.65,0.138-2.683
				c0-1.443-0.138-5.983-0.48-6.603c0.137-0.344,0.275-0.344,0.618-0.55c1.857-0.414,3.852-0.206,5.846-0.069
				c0.275,0,0.62,0.139,0.895,0.345c0.895,0.894,1.514,1.788,1.582,3.232c0.139,1.169,0.139,2.406-0.137,3.576
				c-0.414,1.376-1.377,2.751-2.477,3.714C230.352,325.961,229.251,325.961,226.844,325.961z"/>
			<path fill="#1D1D1B" d="M274.326,314.985c-0.549-0.344-1.031-0.756-1.718-1.031c-1.927-0.344-3.921-0.481-5.708-0.825
				c-0.138,0-0.207,0-0.414,0.068c-0.48,0.069-1.307,1.926-0.275,2.339c0.482,0,0.895,0,1.17,0.481
				c-0.137,0.963-0.895,4.127-1.513,5.158c-0.757,0.963-1.72,2.132-2.614,3.095c-1.375,1.788-2.889,3.231-4.745,4.401
				c-1.169,0.757-2.339,1.444-3.438,2.202c-0.207,0.137-0.62,0.411-0.964,0c-0.067-0.139-0.067-0.275-0.067-0.483
				c0-0.824,0.137-1.513,0.137-2.269c0.068-3.508,0.344-6.878,0.205-10.386v-0.48c0-1.032,0.208-2.064,0.758-2.959
				c0.344-0.48,0.619-1.1,0.825-1.581c0.069-0.344,0.069-0.688-0.069-0.825c-0.412-0.069-0.756-0.274-1.1-0.345
				c-1.102-0.205-2.27-0.48-3.439-0.205c-0.412,0.137-0.895,0.137-1.375,0.205c-0.344-0.068-0.756-0.068-1.031,0
				c-0.482,0.139-0.895,0.481-0.826,0.964c0.276,0.825,0.344,0.825,0.896,1.513c0.687,0.825,0.962,1.788,0.756,2.889
				c-0.207,1.72-0.345,3.509-0.413,5.915c-0.068,1.65-0.206,3.301-0.343,4.884c0.067,0.549,0,1.168-0.069,1.719
				c-0.207,4.883-0.275,9.63-0.068,14.306c0.068,2.063,0,3.989,0.549,6.121c0.207,0.895-0.48,1.581-1.375,1.856
				c-0.207,0.068-0.412,0.068-0.619,0.206c-0.206,0.138-0.275,0.275-0.411,0.481c0,0.207,0.205,0.413,0.343,0.482
				c1.307,0.618,2.682,1.168,3.988,0.894c0.758-0.206,4.814-0.412,5.158-1.376c-0.48-0.55-1.031-0.688-1.513-0.756
				c-1.101-0.274-1.17-0.55-1.308-1.513c-0.137-1.031-0.205-2.064-0.205-3.026c-0.068-0.482,0-1.101,0-1.583
				c0.205-1.442,0.48-8.185,0.343-9.422c0.069-0.619,0.069-1.238,0.345-1.856c1.101-0.413,1.994-0.826,3.094-1.238
				c0.482-0.206,1.033-0.069,1.377,0.275c1.1,0.619,1.926,1.376,2.475,2.339c1.445,1.856,1.927,4.058,2.477,6.258
				c0.139,0.207,0.139,0.413,0.139,0.619c0,2.613,0.205,5.158,0.273,7.84c0.139,0.482,0,1.033,0,1.582
				c-0.205,0.413-0.619,0.346-1.03,0.413c-0.206-0.067-0.619,0.068-0.895,0.205c-0.138,0.07-0.274,0.276-0.274,0.483
				c0,0.136,0.068,0.411,0.274,0.411c0.206,0.139,0.413,0.069,0.618,0.069c0.758,0.139,7.221,0.757,7.979,0.688
				c0.345,0,0.619,0,0.688-0.139c0.275-0.205,0.551-0.48,0.688-0.687c0.069-0.069-0.206-0.481-0.412-0.619s-0.551-0.208-0.963-0.345
				c-0.273-0.206-0.758-0.344-1.101-0.481c-0.275-0.618-0.275-1.1-0.343-1.582c0.067-0.412,0.067-0.893,0.138-1.307
				c-0.275-2.681-0.345-5.295-0.757-7.909c-0.275-1.926-0.826-3.783-1.856-5.57c-0.757-1.169-1.583-2.27-2.958-3.025
				c-0.757-0.551-1.65-0.826-2.34-1.239c-0.344-0.068-0.549-0.344-0.824-0.55c0.275-0.275,0.412-0.413,0.619-0.55
				c0.756-0.551,1.65-1.238,2.338-1.789c1.445-1.101,2.546-2.27,3.303-3.92c0.068-0.274,0.344-0.55,0.549-0.756
				c0.963-0.964,2.89-6.121,2.751-6.81c0.139-0.274,0.413-0.412,0.688-0.481c1.101-0.274,1.72,1.513,3.438-0.482
				C274.465,315.674,274.465,315.261,274.326,314.985z"/>
		</g>
	</g>
	<path fill="#CB7B26" d="M297.572,253.625c-0.619,3.332-0.429,6.45,0.877,9.503c0.402,0.944,0.866,1.025,1.701,0.718
		c2.053-0.757,4.155-1.25,6.369-1.097c2.498,0.174,4.648,1.079,6.371,2.938c1.875,2.018,1.479,6.376-0.787,8.442
		c-3.219,2.94-8.744,3.041-12.164,0.299c-1.309-1.05-2.436-2.218-3.236-3.683c-0.554-1.018-1.107-0.852-1.835-0.161
		c-1.319,1.255-2.212,2.765-2.714,4.485c-0.355,1.218,0.219,2.243,1.068,3.074c2.414,2.374,5.084,4.435,8.032,6.094
		c1.501,0.842,2.908,1.802,4.284,2.82c1.904,1.407,2.797,3.318,2.682,5.633c-0.205,4.136-1.797,7.51-5.169,10.152
		c-3.7,2.896-7.8,5.186-11.532,8.012c-4.26,3.226-7.235,7.271-7.846,12.741c-0.338,3.047,0.736,5.592,3.02,7.632
		c0.581,0.519,1.289,0.731,2.046,0.766c0.992,0.048,1.913,0.333,2.792,0.767c1.213,0.599,1.258,1.205,0.075,1.913
		c-2.264,1.356-4.442,0.722-6.454-0.554c-1.611-1.019-3.018-2.394-3.645-4.218c-1.922-5.575-2.35-11.038,1.517-16.121
		c1.834-2.41,4.335-3.818,6.925-5.182c3.53-1.859,7.266-3.343,10.428-5.867c3.366-2.682,4.049-7.628,1.512-11.118
		c-1.236-1.706-2.967-2.818-4.596-4.062c-2.458-1.878-4.725-3.943-6.483-6.526c-0.926-1.358-0.952-2.751-0.878-4.376
		c0.166-3.69,1.742-6.551,4.316-9.004c0.437-0.417,0.455-0.848,0.326-1.396c-1.526-6.426,0.186-12.228,3.618-17.604
		c0.859-1.352,0.853-2.325,0.149-3.686c-1.346-2.607-2.256-5.363-1.918-8.396c0.174-1.51,0.547-2.903,1.484-4.132
		c1.303-1.708,2.053-3.8,3.904-5.147c1.656-1.207,3.447-1.754,5.436-1.762c1.94-0.01,3.474,0.923,4.36,2.572
		c0.845,1.572,0.427,3.294-0.345,4.788c-0.898,1.754-4.601,2.05-5.959,0.589c-0.575-0.619-0.358-1.319-0.035-1.914
		c0.352-0.646,0.963-0.454,1.5-0.182c0.205,0.099,0.418,0.214,0.569,0.379c0.63,0.693,1.302,0.97,2.038,0.196
		c0.76-0.804,0.77-2.46,0.064-3.108c-1.595-1.471-3.797-1.666-5.883-0.511c-3.425,1.896-4.27,5.113-4.482,8.688
		c-0.145,2.419,0.9,4.427,2.025,6.427c0.412,0.737,0.958,0.774,1.727,0.46c2.452-0.995,5.014-1.578,7.652-1.764
		c2.287-0.164,4.445,0.364,6.433,1.465c2.823,1.57,3.43,6.021,1.427,8.535c-2.025,2.548-4.742,2.764-7.57,2.623
		c-3.934-0.196-7.014-2.221-9.525-5.09c-0.931-1.067-1.34-1.066-2,0.146C298.557,251.082,297.912,252.346,297.572,253.625z
		 M313.059,244.018c-3.152-0.862-6.051,0.163-8.947,1.208c-0.625,0.222-0.908,0.589-0.311,1.084
		c3.254,2.707,6.814,4.775,11.186,4.818c1.652,0.018,2.416-1.004,2.391-2.679C317.338,245.99,316.107,244.729,313.059,244.018z
		 M307.791,265.209c-2.433-0.714-4.588,0.093-6.702,1.189c-0.659,0.342-0.819,0.689-0.319,1.303c0.831,1.018,1.648,2.05,2.684,2.863
		c1.563,1.23,3.109,2.501,5.19,2.802c1.403,0.203,2.29-0.36,2.833-1.63C312.717,268.839,311.078,265.925,307.791,265.209z
		 M306.351,295.505c0.585-3.105,0.37-5.935-2.454-7.999c-1.013-0.743-1.995-1.524-3.1-2.132c-2.658-1.464-5.09-3.255-7.471-5.12
		c-0.284-0.224-0.541-0.65-0.98-0.427c-0.051,0.027,0.141,0.633,0.295,0.93c0.57,1.071,1.356,1.982,2.273,2.766
		c1.778,1.517,3.503,3.097,5.447,4.411c2.666,1.804,4.445,4.223,4.992,7.467c0.056,0.34-0.059,0.918,0.539,0.895
		C306.342,296.276,306.215,295.773,306.351,295.505z M303.821,274.7c0.221,0.057,0.438,0.137,0.663,0.162
		c0.838,0.098,1.686,0.27,2.453-0.271c-0.424-0.563-1.211-0.446-1.688-0.915c-0.161-0.151-0.385-0.245-0.578-0.368
		c-2.042-1.305-3.712-3.023-5.252-4.865c-0.497-0.599-0.923-0.727-1.577-0.293c-0.649,0.431-0.345,0.93-0.092,1.332
		C299.226,271.851,301,273.893,303.821,274.7z M309.855,253.295c1.076,0.078,2.434,0.112,3.777-0.197
		c0.199-0.046,0.5-0.192,0.527-0.333c0.091-0.464-0.347-0.335-0.566-0.362c-4.195-0.554-7.713-2.59-11.056-5.017
		c-0.21-0.154-0.434-0.551-0.691-0.306c-0.319,0.31,0.088,0.581,0.247,0.854C303.792,250.822,306.553,252.201,309.855,253.295z
		 M281.941,318.691c-0.09,0.519-0.188,1.02-0.257,1.524c-0.04,0.276-0.034,0.561-0.046,0.842c0.45-0.048,0.388-0.49,0.523-0.747
		c1.612-3.045,2.961-6.257,5.653-8.589c0.128-0.109,0.319-0.277,0.145-0.38c-0.114-0.068-0.397,0.084-0.569,0.191
		C284.682,313.244,282.965,315.705,281.941,318.691z M295.555,260.982c0.084,1.3,0.027,2.613,0.365,3.886
		c0.084,0.321,0.258,0.676,0.715,0.482c0.354-0.15,0.543-0.46,0.441-0.821c-0.332-1.201-0.699-2.393-1.072-3.581
		c-0.036-0.112-0.211-0.181-0.319-0.27C295.639,260.777,295.596,260.881,295.555,260.982z M288.053,334.25
		c0.281,0.031,0.564,0.06,0.844,0.093c0.223,0.024,0.543,0.109,0.604-0.123c0.061-0.229-0.238-0.335-0.463-0.356
		c-0.282-0.028-0.568-0.062-0.848-0.042c-0.317,0.022-0.729-0.459-0.876-0.074C287.199,334.051,287.691,334.227,288.053,334.25z"/>
	<path fill="#CB7B26" d="M127.903,249.824c-0.659-1.213-1.068-1.214-2-0.146c-2.511,2.869-5.592,4.894-9.525,5.09
		c-2.828,0.141-5.544-0.075-7.57-2.623c-2.002-2.514-1.396-6.965,1.428-8.535c1.987-1.101,4.145-1.629,6.433-1.465
		c2.639,0.186,5.2,0.769,7.65,1.764c0.771,0.314,1.315,0.277,1.729-0.46c1.125-2,2.17-4.008,2.025-6.427
		c-0.214-3.575-1.059-6.792-4.482-8.688c-2.087-1.155-4.288-0.96-5.883,0.511c-0.705,0.648-0.695,2.305,0.063,3.108
		c0.737,0.773,1.408,0.497,2.039-0.196c0.151-0.165,0.364-0.28,0.568-0.379c0.538-0.272,1.148-0.464,1.5,0.182
		c0.324,0.595,0.541,1.295-0.034,1.914c-1.358,1.461-5.061,1.165-5.96-0.589c-0.771-1.494-1.188-3.216-0.344-4.788
		c0.887-1.649,2.42-2.582,4.36-2.572c1.988,0.008,3.778,0.555,5.436,1.762c1.85,1.348,2.601,3.439,3.903,5.147
		c0.938,1.229,1.312,2.622,1.483,4.132c0.34,3.032-0.57,5.788-1.916,8.396c-0.705,1.36-0.71,2.334,0.149,3.686
		c3.433,5.377,5.145,11.179,3.618,17.604c-0.13,0.548-0.11,0.979,0.324,1.396c2.576,2.453,4.152,5.313,4.318,9.004
		c0.074,1.625,0.048,3.018-0.878,4.376c-1.759,2.583-4.025,4.648-6.483,6.526c-1.629,1.243-3.359,2.355-4.598,4.062
		c-2.535,3.49-1.854,8.437,1.513,11.118c3.163,2.524,6.898,4.008,10.428,5.867c2.591,1.363,5.092,2.771,6.925,5.182
		c3.867,5.083,3.438,10.546,1.518,16.121c-0.629,1.824-2.033,3.199-3.646,4.218c-2.012,1.275-4.189,1.91-6.453,0.554
		c-1.183-0.708-1.138-1.314,0.074-1.913c0.879-0.434,1.801-0.719,2.793-0.767c0.757-0.034,1.465-0.247,2.046-0.766
		c2.282-2.04,3.356-4.585,3.019-7.632c-0.609-5.47-3.586-9.516-7.846-12.741c-3.732-2.826-7.831-5.116-11.532-8.012
		c-3.372-2.643-4.963-6.017-5.168-10.152c-0.116-2.314,0.776-4.226,2.681-5.633c1.376-1.019,2.783-1.979,4.285-2.82
		c2.947-1.659,5.618-3.72,8.031-6.094c0.85-0.831,1.425-1.856,1.069-3.074c-0.503-1.721-1.396-3.23-2.715-4.485
		c-0.727-0.69-1.28-0.856-1.835,0.161c-0.8,1.465-1.928,2.633-3.236,3.683c-3.419,2.742-8.944,2.642-12.163-0.299
		c-2.266-2.066-2.662-6.425-0.788-8.442c1.724-1.858,3.874-2.764,6.371-2.938c2.215-0.153,4.317,0.34,6.37,1.097
		c0.835,0.308,1.298,0.227,1.701-0.718c1.305-3.053,1.495-6.171,0.876-9.503C129.236,252.346,128.591,251.082,127.903,249.824z
		 M109.771,248.449c-0.026,1.675,0.737,2.696,2.391,2.679c4.37-0.043,7.932-2.111,11.186-4.818c0.597-0.495,0.313-0.862-0.311-1.084
		c-2.897-1.045-5.795-2.07-8.947-1.208C111.041,244.729,109.81,245.99,109.771,248.449z M115.67,271.736
		c0.544,1.27,1.431,1.833,2.834,1.63c2.08-0.301,3.627-1.571,5.19-2.802c1.034-0.813,1.853-1.846,2.684-2.863
		c0.5-0.613,0.339-0.961-0.319-1.303c-2.115-1.097-4.27-1.903-6.702-1.189C116.069,265.925,114.431,268.839,115.67,271.736z
		 M121.255,296.295c0.598,0.023,0.483-0.555,0.539-0.895c0.545-3.244,2.325-5.663,4.991-7.467c1.945-1.314,3.67-2.895,5.447-4.411
		c0.918-0.783,1.704-1.694,2.273-2.766c0.155-0.297,0.346-0.902,0.295-0.93c-0.439-0.224-0.695,0.203-0.98,0.427
		c-2.382,1.865-4.813,3.656-7.47,5.12c-1.104,0.607-2.087,1.389-3.1,2.132c-2.824,2.064-3.039,4.894-2.454,7.999
		C120.932,295.773,120.806,296.276,121.255,296.295z M129.397,269.482c0.252-0.402,0.557-0.901-0.092-1.332
		c-0.654-0.434-1.081-0.306-1.578,0.293c-1.539,1.842-3.209,3.561-5.251,4.865c-0.194,0.123-0.417,0.217-0.578,0.368
		c-0.477,0.469-1.265,0.353-1.688,0.915c0.768,0.54,1.615,0.368,2.452,0.271c0.225-0.025,0.443-0.105,0.664-0.162
		C126.147,273.893,127.922,271.851,129.397,269.482z M125.053,247.934c0.16-0.272,0.567-0.544,0.248-0.854
		c-0.258-0.245-0.482,0.151-0.691,0.306c-3.343,2.427-6.86,4.463-11.056,5.017c-0.22,0.027-0.658-0.102-0.566,0.362
		c0.027,0.141,0.327,0.287,0.526,0.333c1.344,0.31,2.702,0.275,3.778,0.197C120.595,252.201,123.356,250.822,125.053,247.934z
		 M139.756,311.533c-0.171-0.107-0.454-0.26-0.568-0.191c-0.175,0.103,0.017,0.271,0.145,0.38c2.692,2.332,4.041,5.544,5.653,8.589
		c0.136,0.257,0.073,0.699,0.523,0.747c-0.012-0.281-0.007-0.565-0.046-0.842c-0.069-0.505-0.168-1.006-0.257-1.524
		C144.182,315.705,142.466,313.244,139.756,311.533z M131.462,260.679c-0.107,0.089-0.282,0.157-0.319,0.27
		c-0.373,1.188-0.739,2.38-1.071,3.581c-0.102,0.361,0.088,0.671,0.44,0.821c0.456,0.193,0.631-0.161,0.715-0.482
		c0.339-1.272,0.281-2.586,0.366-3.886C131.552,260.881,131.508,260.777,131.462,260.679z M139.834,333.747
		c-0.146-0.385-0.56,0.097-0.876,0.074c-0.279-0.02-0.565,0.014-0.848,0.042c-0.225,0.021-0.523,0.127-0.463,0.356
		c0.061,0.232,0.381,0.147,0.604,0.123c0.279-0.033,0.563-0.062,0.843-0.093C139.457,334.227,139.949,334.051,139.834,333.747z"/>
	<path fill="#CB7B26" d="M234.889,360.886c-14.316-1.765-28.748-1.385-42.936,1.245c-3.176,0.59,1.338,5.46,3.572,5.044
		c13.757-2.549,27.756-3.033,41.645-1.323C241.035,366.328,237.174,361.166,234.889,360.886z"/>
	<path fill="#CB7B26" d="M104.221,97.63c1.421-1.319,2.862-2.441,4.81-2.979c4.619-1.272,9.106-0.673,13.521,0.765
		c1.06,0.346,1.791,0.243,2.759-0.145c4.641-1.877,9.298-2.575,13.836,0.335c3.076,1.968,5.002,4.872,6.023,8.262
		c0.743,2.466,0.336,4.958-1.347,7.085c-1.633,2.072-3.943,2.603-6.018,1.367c-1.72-1.027-2.176-3.524-1.059-5.784
		c0.781-1.58,2.489-1.934,3.724-0.715c0.592,0.591,1.073,1.384,0.451,2.174c-0.559,0.71-1.103,0.036-1.638-0.269
		c-0.877-0.498-1.412-0.152-1.374,0.883c0.032,0.872,0.421,1.574,1.228,1.961c0.932,0.448,1.788,0.287,2.585-0.381
		c1.969-1.645,2.452-4.802,1.11-7.341c-0.687-1.305-1.62-2.427-2.697-3.397c-4.097-3.694-8.512-4.443-13.755-2.788
		c-0.95,0.3-1.05,0.755-0.319,1.45c0.629,0.602,1.169,1.297,1.816,1.873c3.662,3.245,4.619,11.716,1.451,16.168
		c-1.74,2.448-5.556,4.719-9.412,1.914c-2.737-1.987-3.413-4.904-3.418-7.997c-0.009-3.665,0.892-7.141,3.054-10.173
		c0.545-0.759,0.276-0.943-0.435-1.171c-1.184-0.379-2.409-0.436-3.618-0.471c-4.383-0.131-8.465,1.043-11.279,4.446
		c-5.405,6.527-6.196,13.741-2.322,21.416c1.547,3.063,3.457,5.729,6.243,7.786c1.864,1.379,3.629,2.899,5.373,4.431
		c3.958,3.477,5.816,7.856,5.502,13.136c-0.238,4.042-1.925,7.541-4.375,10.615c-3.179,3.984-9.181,5.093-13.188,2.579
		c-2.943-1.848-3.927-4.863-4.587-8.076c-0.809-3.948,0.359-6.354,4.266-9.072c2.314-1.612,5.362-0.328,6.349,2.299
		c0.495,1.311-0.014,2.394-0.386,3.527c-0.467,1.415-1.985,2.315-3.063,1.91c-1.099-0.414-1.461-2.054-0.913-3.493
		c0.203-0.534,1.282-0.948,0.598-1.554c-0.585-0.517-1.453-0.018-2.124,0.307c-0.616,0.302-1.181,0.709-1.598,1.308
		c-1.533,2.199-1.325,6.69,0.409,8.72c2.148,2.513,5.062,2.526,8.155,1.079c7.337-3.43,11.938-16.297,2.82-22.672
		c-2.421-1.689-4.761-3.548-6.904-5.578c-7.255-6.865-8.698-15.241-6.053-24.631C99.587,103.243,101.475,100.181,104.221,97.63z
		 M118.618,112.554c0.286,2.333,1.625,3.849,3.733,4.199c2.955,0.491,4.795-0.251,5.877-2.482c1.631-3.372,1.676-7.224-1.24-10.126
		c-1.15-1.146-2.323-2.258-3.61-3.244c-0.793-0.607-1.477-0.754-2.027,0.425c-0.682,1.462-1.67,2.782-2.031,4.286
		C118.475,107.931,118.333,110.223,118.618,112.554z M107.63,96.942c-1.644,0.653-2.795,2.031-3.888,3.396
		c-0.135,0.171-0.353,0.325-0.248,0.602c0.208-0.077,0.448-0.116,0.623-0.243c1.907-1.359,4.021-2.297,6.226-3.05
		c3.108-1.064,6.275-0.9,9.454-0.42c0.374,0.055,0.92,0.493,1.062,0.036c0.108-0.335-0.605-0.369-0.967-0.504
		c-0.162-0.063-0.33-0.112-0.495-0.168C115.444,95.606,111.485,95.401,107.63,96.942z M112.15,159.244
		c-0.407,0.318-0.838,0.608-1.202,0.966c-0.359,0.356-1.361,0.231-1.053,0.94c0.126,0.284,0.984-0.328,1.444-0.646
		c0.426-0.288,0.802-0.648,1.209-0.961c0.206-0.157,0.25-0.31,0.061-0.622C112.426,159.05,112.284,159.141,112.15,159.244z
		 M104.551,150.782c-0.106,0.246,0.052,0.447,0.301,0.524c0.323,0.099,0.576-0.061,0.703-0.335c0.109-0.245-0.04-0.433-0.293-0.538
		C104.972,150.433,104.674,150.486,104.551,150.782z"/>
	<path fill="#CB7B26" d="M326.859,103.708c3.98,8.904,3.771,17.4-2.409,25.249c-1.825,2.319-3.87,4.498-6.02,6.521
		c-8.095,7.633-1.672,19.694,6.085,22.021c3.272,0.981,6.152,0.544,7.912-2.254c1.422-2.259,0.975-6.732-0.862-8.686
		c-0.5-0.532-1.118-0.854-1.771-1.062c-0.711-0.224-1.643-0.591-2.146,0.005c-0.59,0.698,0.538,0.951,0.817,1.451
		c0.75,1.344,0.63,3.019-0.396,3.588c-1.008,0.558-2.641-0.112-3.308-1.444c-0.533-1.067-1.192-2.065-0.895-3.435
		c0.593-2.741,3.423-4.455,5.947-3.197c4.26,2.122,5.766,4.332,5.539,8.356c-0.187,3.274-0.721,6.401-3.364,8.657
		c-3.6,3.069-9.701,2.846-13.423-0.635c-2.871-2.686-5.048-5.902-5.872-9.866c-1.08-5.178,0.123-9.782,3.533-13.796
		c1.504-1.77,3.027-3.529,4.673-5.164c2.457-2.441,3.96-5.357,5.044-8.611c2.719-8.157,0.887-15.18-5.41-20.853
		c-3.279-2.957-7.49-3.525-11.806-2.758c-1.191,0.21-2.395,0.444-3.511,0.991c-0.671,0.329-0.909,0.55-0.262,1.221
		c2.582,2.688,3.978,5.994,4.502,9.621c0.443,3.063,0.199,6.046-2.219,8.409c-3.409,3.335-7.514,1.644-9.591-0.526
		c-3.781-3.943-4.067-12.462-0.915-16.206c0.557-0.664,0.991-1.431,1.525-2.116c0.621-0.794,0.457-1.231-0.526-1.389
		c-5.429-0.876-9.688,0.506-13.203,4.757c-0.926,1.117-1.687,2.363-2.175,3.754c-0.961,2.707-0.023,5.762,2.164,7.102
		c0.887,0.545,1.757,0.58,2.613,0.001c0.742-0.5,1.023-1.25,0.93-2.119c-0.113-1.029-0.691-1.294-1.487-0.673
		c-0.485,0.379-0.926,1.125-1.582,0.503c-0.73-0.689-0.37-1.546,0.13-2.216c1.045-1.386,2.786-1.284,3.789,0.166
		c1.434,2.073,1.344,4.61-0.207,5.876c-1.873,1.523-4.236,1.336-6.152-0.478c-1.975-1.859-2.739-4.267-2.363-6.813
		c0.518-3.502,2.002-6.656,4.761-9.05c4.065-3.538,8.775-3.524,13.639-2.342c1.013,0.243,1.753,0.237,2.751-0.259
		c4.158-2.063,8.511-3.31,13.266-2.722c2.005,0.249,3.595,1.15,5.191,2.248C322.884,97.662,325.197,100.418,326.859,103.708z
		 M306.02,105.63c-0.576-1.436-1.745-2.598-2.633-3.945c-0.717-1.086-1.371-0.842-2.068-0.126c-1.129,1.163-2.127,2.434-3.1,3.735
		c-2.463,3.295-1.858,7.1,0.245,10.197c1.396,2.052,3.324,2.519,6.175,1.603c2.035-0.652,3.139-2.348,3.084-4.697
		C307.666,110.049,307.192,107.802,306.02,105.63z M304.633,96.718c-0.156,0.078-0.315,0.151-0.469,0.237
		c-0.336,0.187-1.037,0.324-0.883,0.64c0.208,0.432,0.684-0.082,1.047-0.19c3.074-0.937,6.185-1.56,9.415-0.958
		c2.288,0.424,4.517,1.044,6.603,2.111c0.191,0.101,0.434,0.104,0.652,0.15c0.063-0.288-0.176-0.409-0.334-0.559
		c-1.279-1.191-2.619-2.389-4.34-2.796C312.287,94.39,308.399,95.167,304.633,96.718z M320.408,157.397
		c-0.143,0.337-0.076,0.481,0.148,0.606c0.449,0.251,0.874,0.552,1.337,0.774c0.501,0.249,1.44,0.73,1.524,0.431
		c0.201-0.746-0.771-0.478-1.18-0.777c-0.412-0.301-0.88-0.524-1.329-0.781C320.762,157.567,320.606,157.498,320.408,157.397z
		 M326.442,147.933c-0.235,0.141-0.354,0.349-0.211,0.575c0.165,0.253,0.438,0.373,0.745,0.229c0.234-0.112,0.361-0.334,0.221-0.563
		C327.031,147.899,326.73,147.89,326.442,147.933z"/>
</g>
</svg>
